<?xml version="1.0" encoding="UTF-8"?>
<svg width="50px" height="50px" viewBox="0 0 50 50" version="1.1" xmlns="http://www.w3.org/2000/svg" xmlns:xlink="http://www.w3.org/1999/xlink">
    <!-- Generator: Sketch 58 (84663) - https://sketch.com -->
    <title>Asset 1</title>
    <desc>Created with Sketch.</desc>
    <g id="Mentorship" stroke="none" stroke-width="1" fill="none" fill-rule="evenodd">
        <g transform="translate(-1206.000000, -2846.000000)" fill="#333033" fill-rule="nonzero" id="Meet-the-mentors">
            <g transform="translate(-1.000000, 2150.000000)">
                <g id="Mentor-info" transform="translate(130.000000, 368.000000)">
                    <g id="Social-links" transform="translate(951.000000, 328.000000)">
                        <g id="Asset-1" transform="translate(126.000000, 0.000000)">
                            <path d="M25.2232143,49.5446445 C15.3808793,49.5482541 6.50584371,43.6216768 2.73767684,34.5292355 C-1.03049003,25.4367942 1.05054457,14.9697091 8.01012683,8.01012683 C14.9697091,1.05054457 25.4367942,-1.03049003 34.5292355,2.73767684 C43.6216768,6.50584371 49.5482541,15.3808793 49.5446445,25.2232143 C49.5298806,38.6494489 38.6494489,49.5298806 25.2232143,49.5446445 Z M25.2232143,3.50892672 C16.4397939,3.50531697 8.51923758,8.79354239 5.15546532,16.9073283 C1.79169306,25.0211143 3.64727065,34.3622798 9.85680999,40.5743734 C16.0663493,46.7864671 25.4067509,48.6458862 33.5219196,45.2854512 C41.6370882,41.9250162 46.9285714,34.0066354 46.9285714,25.2232143 C46.9138243,13.2403438 37.2060777,3.5286039 25.2232143,3.50892672 Z" id="Shape"></path>
                            <path d="M26.5892857,10.5714286 C20.4148633,10.0068708 14.5484072,13.370943 11.917104,18.9850734 C9.28580074,24.5992039 10.4535892,31.2601767 14.8377777,35.6443652 C19.2219662,40.0285537 25.8829389,41.1963421 31.4970694,38.5650389 C37.1111999,35.9337356 40.475272,30.0672796 39.9107143,23.8928571 C39.2537531,16.8256061 33.6565368,11.2283897 26.5892857,10.5714286 Z M34.9285714,17.9821429 C36.3718013,19.8989105 37.2110877,22.2022852 37.3392857,24.5982143 C37.3374926,24.6672842 37.3061496,24.7322648 37.2532109,24.776665 C37.2002723,24.8210651 37.1308273,24.8406164 37.0625,24.8303571 C34.5489149,24.2853618 31.9595747,24.1826342 29.4107143,24.5267857 C29.3108517,24.5457478 29.2121425,24.4888002 29.1785714,24.3928571 C28.9017857,23.7410714 28.6160714,23.1160714 28.3303571,22.5089286 C28.3038097,22.4548301 28.3012681,22.3920538 28.3233553,22.3359863 C28.3454425,22.2799188 28.3901169,22.2357427 28.4464286,22.2142857 C30.7356556,21.1833107 32.8174091,19.7430277 34.5892857,17.9642857 C34.6342518,17.916828 34.6977632,17.8914693 34.7630501,17.8949055 C34.828337,17.8983416 34.8888355,17.9302271 34.9285714,17.9821429 L34.9285714,17.9821429 Z M32.7678571,16.0714286 C31.1914923,17.6882964 29.3179636,18.9858211 27.25,19.8928571 C27.1409714,19.9361751 27.0165892,19.8947144 26.9553571,19.7946429 C25.7939326,17.6497555 24.4622786,15.6015166 22.9732143,13.6696429 C22.9248744,13.6070945 22.9132228,13.5236437 22.9425815,13.4502469 C22.9719403,13.37685 23.0379299,13.3244558 23.1160714,13.3125 C26.5255668,12.7062882 30.0315683,13.5868502 32.75,15.7321429 C32.8019157,15.7718788 32.8338012,15.8323773 32.8372374,15.8976642 C32.8406735,15.9629511 32.8153149,16.0264624 32.7678571,16.0714286 Z M20.2142857,14.4196429 C21.8048278,16.373432 23.2181521,18.4650325 24.4375,20.6696429 C24.470362,20.7305199 24.4754867,20.802581 24.4515707,20.867496 C24.4276547,20.9324109 24.377003,20.9839228 24.3125,21.0089286 C20.8713255,21.9119213 17.3339948,22.3975548 13.7767857,22.4553571 C13.7047014,22.4573098 13.6358028,22.4256532 13.5903303,22.369687 C13.5448578,22.3137208 13.5279755,22.239801 13.5446429,22.1696429 C14.4520334,18.7733772 16.7827331,15.9348714 19.9375,14.3839286 C20.0274183,14.332856 20.1402767,14.3474184 20.2142857,14.4196429 Z M13.3928571,25.0625 C17.5352254,25.0239878 21.6531892,24.4232637 25.6339286,23.2767857 C25.7373999,23.2422535 25.8506736,23.2875629 25.9017857,23.3839286 C26.1339286,23.875 26.3571429,24.375 26.5892857,24.9017857 C26.6314419,25.0249499 26.5682014,25.1593361 26.4464286,25.2053571 C22.625,26.4464286 19.2232143,28.9642857 16.1785714,32.7946429 C16.134503,32.8446117 16.0710894,32.8732376 16.0044643,32.8732376 C15.9378392,32.8732376 15.8744255,32.8446117 15.8303571,32.7946429 C14.0612602,30.6825647 13.1105717,28.0047921 13.1517857,25.25 C13.1739313,25.1359989 13.2769125,25.0559023 13.3928571,25.0625 L13.3928571,25.0625 Z M18.0357143,34.6607143 C20.8392857,31.0892857 23.9285714,28.7410714 27.4107143,27.6607143 C27.5287845,27.6248225 27.6542999,27.6875802 27.6964286,27.8035714 C28.6747434,30.5453955 29.3922079,33.3734012 29.8392857,36.25 C29.8566539,36.3540875 29.8016329,36.4567932 29.7053571,36.5 C25.8334188,38.0293529 21.4466946,37.4557043 18.0982143,34.9821429 C18.0454051,34.9493779 18.0086466,34.8960799 17.9967844,34.8350747 C17.9849223,34.7740694 17.9990306,34.7108806 18.0357143,34.6607143 Z M32.2321429,34.7142857 C31.7838705,32.2062199 31.1390249,29.7372971 30.3035714,27.3303571 C30.2814354,27.2660726 30.2898047,27.195204 30.3263063,27.1378443 C30.3628079,27.0804846 30.423462,27.0428881 30.4910714,27.0357143 C32.6435555,26.8384269 34.8137348,26.9861197 36.9196429,27.4732143 C37.0378524,27.5039664 37.1120117,27.6210601 37.0892857,27.7410714 C36.5026002,30.5790146 34.9188733,33.1129777 32.625,34.8839286 C32.5575993,34.9485718 32.4580018,34.9665757 32.3722461,34.9295448 C32.2864904,34.8925139 32.2312828,34.8076912 32.2321429,34.7142857 L32.2321429,34.7142857 Z" id="Shape"></path>
                        </g>
                    </g>
                </g>
            </g>
        </g>
    </g>
</svg>