<?xml version="1.0" encoding="UTF-8"?>
<svg width="50px" height="50px" viewBox="0 0 50 50" version="1.1" xmlns="http://www.w3.org/2000/svg" xmlns:xlink="http://www.w3.org/1999/xlink">
    <!-- Generator: Sketch 58 (84663) - https://sketch.com -->
    <title>Asset 3</title>
    <desc>Created with Sketch.</desc>
    <g id="Mentorship" stroke="none" stroke-width="1" fill="none" fill-rule="evenodd">
        <g transform="translate(-1143.000000, -2846.000000)" fill="#333033" fill-rule="nonzero" id="Meet-the-mentors">
            <g transform="translate(-1.000000, 2150.000000)">
                <g id="Mentor-info" transform="translate(130.000000, 368.000000)">
                    <g id="Social-links" transform="translate(951.000000, 328.000000)">
                        <g id="Asset-3" transform="translate(63.000000, 0.000000)">
                            <path d="M25.009537,50 C14.8964603,50.0037072 5.7772912,43.9141023 1.90547003,34.5715472 C-1.96635114,25.228992 0.171928319,14.4739796 7.32295396,7.32295396 C14.4739796,0.171928319 25.228992,-1.96635114 34.5715472,1.90547003 C43.9141023,5.7772912 50.0037072,14.8964603 50,25.009537 C49.9848283,38.8050989 38.8050989,49.9848283 25.009537,50 Z M25.009537,2.69793536 C15.9845034,2.69422631 7.84606927,8.12791963 4.38976675,16.4648987 C0.933464239,24.8018777 2.84008484,34.3999989 9.22043546,40.7829741 C15.6007861,47.1659493 25.1981223,49.0765171 33.5365221,45.6236436 C41.8749219,42.1707701 47.3119626,34.0345714 47.3119626,25.009537 C47.2968098,12.6970431 37.3220236,2.71815382 25.009537,2.69793536 Z" id="Shape"></path>
                            <path d="M34.6988547,20.4760826 C27.8021177,20.4760826 27.7928603,27.2129046 27.7928603,27.2492217 C27.7928603,27.2855388 27.3207347,33.995123 34.6988547,33.995123 C34.6988547,33.995123 40.2532737,34.3038183 40.7994583,30.0093213 C40.8235813,29.8295369 40.7670919,29.6483211 40.6445878,29.5125023 C40.5220837,29.3766835 40.3455846,29.2995878 40.1607001,29.3011378 L38.2351682,29.3011378 C37.9553828,29.2970802 37.7064503,29.4746392 37.6241821,29.736943 C37.4575495,30.2998581 36.8650781,31.1987063 34.8469725,31.1987063 C33.3391134,31.3407581 31.9714436,30.3268484 31.6994684,28.8653326 C31.6726721,28.6832644 31.7276251,28.4987403 31.8501279,28.3594405 C31.9726307,28.2201406 32.1506646,28.1397316 32.3382266,28.1389906 L40.3551048,28.1389906 C40.6973141,28.139308 40.9789844,27.8750673 40.993863,27.5397585 C41.0586645,25.7148242 40.716142,20.4760826 34.6988547,20.4760826 Z M32.0882777,25.7693232 C31.9682604,25.7687129 31.8555976,25.7124877 31.7844648,25.6176797 C31.713332,25.5228717 31.6921115,25.4006532 31.7272405,25.2880983 C32.0973208,23.9499803 33.3503585,23.0320279 34.7636562,23.0636759 C36.1504094,22.9748841 37.353529,23.9932181 37.4668068,25.3516532 C37.4831102,25.4569991 37.4514206,25.5640522 37.3801317,25.6444572 C37.3088428,25.7248623 37.2051477,25.7705064 37.0965122,25.7693232 L32.0882777,25.7693232 Z M23.8121933,24.1985853 C23.7152496,24.1563229 23.6527743,24.062033 23.6527743,23.9579845 C23.6527743,23.8539361 23.7152496,23.7596461 23.8121933,23.7173837 C24.9231781,23.1200933 25.5641192,21.930733 25.4414896,20.6939852 C25.4414896,17.5434767 23.2012072,16 20.3591961,16 L11.4721256,16 C11.3469101,16 11.2268231,16.0487847 11.1382824,16.1356222 C11.0497417,16.2224596 11,16.3402364 11,16.463043 L11,33.168909 C11,33.4246406 11.2113778,33.631952 11.4721256,33.631952 L20.3591961,33.631952 C20.3591961,33.631952 26.0709904,33.8044582 26.0709904,28.4204482 C26.0709904,28.4113689 26.2561377,24.9975615 23.8121933,24.1985853 L23.8121933,24.1985853 Z M15.1287848,19.4592038 C15.1262844,19.3709545 15.1602892,19.2854662 15.2230616,19.2221913 C15.285834,19.1589163 15.372035,19.1232706 15.46205,19.1232706 L20.3591961,19.1232706 C20.3591961,19.1232706 21.6274551,19.1232706 21.6274551,20.9391256 C21.6274551,22.7549806 20.8776086,23.0455174 20.0351883,23.0455174 L15.46205,23.0455174 C15.2765049,23.0405973 15.1286561,22.8916264 15.1287848,22.7095842 L15.1287848,19.4592038 Z M20.0907325,30.4905229 L15.46205,30.4905229 C15.372035,30.4905229 15.285834,30.4548771 15.2230616,30.3916022 C15.1602892,30.3283272 15.1262844,30.2428389 15.1287848,30.1545897 L15.1287848,26.1415501 C15.1286561,25.959508 15.2765049,25.810537 15.46205,25.805617 L20.3591961,25.805617 C20.3591961,25.805617 22.2106691,25.805617 22.2106691,28.2388627 C22.2476986,30.263541 20.8405791,30.4723643 20.0907325,30.4905229 L20.0907325,30.4905229 Z M30.8292761,16.6991042 L30.8292761,18.2062638 C30.8292413,18.2945471 30.865621,18.3790898 30.9301371,18.4406546 C30.9946532,18.5022194 31.0818183,18.53557 31.1717986,18.5331177 L37.9111604,18.5331177 C38.0952176,18.5331177 38.2444255,18.3867802 38.2444255,18.2062638 L38.2444255,16.6991042 C38.2469259,16.6108549 38.2129211,16.5253666 38.1501487,16.4620917 C38.0873763,16.3988167 38.0011754,16.3631369 37.9111604,16.363171 L31.1717986,16.363171 C31.0801888,16.3606386 30.9915585,16.3952176 30.9267549,16.4587745 C30.8619512,16.5223315 30.826694,16.6092567 30.8292761,16.6991042 Z" id="Shape"></path>
                        </g>
                    </g>
                </g>
            </g>
        </g>
    </g>
</svg>