<?xml version="1.0" encoding="UTF-8"?>
<svg width="50px" height="50px" viewBox="0 0 50 50" version="1.1" xmlns="http://www.w3.org/2000/svg" xmlns:xlink="http://www.w3.org/1999/xlink">
    <!-- Generator: Sketch 58 (84663) - https://sketch.com -->
    <title>Asset 2</title>
    <desc>Created with Sketch.</desc>
    <g id="Mentorship" stroke="none" stroke-width="1" fill="none" fill-rule="evenodd">
        <g transform="translate(-1269.000000, -2846.000000)" fill="#333033" fill-rule="nonzero" id="Meet-the-mentors">
            <g transform="translate(-1.000000, 2150.000000)">
                <g id="Mentor-info" transform="translate(130.000000, 368.000000)">
                    <g id="Social-links" transform="translate(951.000000, 328.000000)">
                        <g id="Asset-2" transform="translate(189.000000, 0.000000)">
                            <path d="M25.2232143,49.5446445 C15.3808793,49.5482541 6.50584371,43.6216768 2.73767684,34.5292355 C-1.03049003,25.4367942 1.05054457,14.9697091 8.01012683,8.01012683 C14.9697091,1.05054457 25.4367942,-1.03049003 34.5292355,2.73767684 C43.6216768,6.50584371 49.5482541,15.3808793 49.5446445,25.2232143 C49.5298806,38.6494489 38.6494489,49.5298806 25.2232143,49.5446445 Z M25.2232143,3.50892672 C16.4397939,3.50531697 8.51923758,8.79354239 5.15546532,16.9073283 C1.79169306,25.0211143 3.64727065,34.3622798 9.85680999,40.5743734 C16.0663493,46.7864671 25.4067509,48.6458862 33.5219196,45.2854512 C41.6370882,41.9250162 46.9285714,34.0066354 46.9285714,25.2232143 C46.9138243,13.2403438 37.2060777,3.5286039 25.2232143,3.50892672 Z" id="Shape"></path>
                            <path d="M38.9733136,27.0714286 L38.9733136,36.1517857 C38.9756171,36.2598844 38.9343493,36.364389 38.8587379,36.4416807 C38.7831265,36.5189724 38.6795539,36.5626016 38.5714286,36.5626016 L33.875,36.5626016 C33.7668746,36.5626016 33.6633021,36.5189724 33.5876907,36.4416807 C33.5120792,36.364389 33.4708115,36.2598844 33.4732143,36.1517857 L33.4732143,27.6785714 C33.4732143,25.4553571 32.6785714,23.9375 30.6875,23.9375 C29.4140743,23.9431281 28.2829584,24.7520908 27.8660714,25.9553571 C27.7154267,26.3942113 27.6517399,26.8582149 27.6785714,27.3214286 L27.6785714,36.1517857 C27.6809742,36.2598844 27.6397065,36.364389 27.564095,36.4416807 C27.4884836,36.5189724 27.3849111,36.5626016 27.2767857,36.5626016 L22.5892857,36.5626016 C22.4796203,36.5649653 22.373715,36.5224859 22.2961503,36.4449212 C22.2185855,36.3673564 22.1761061,36.2614511 22.1784698,36.1517857 C22.1784698,33.9017857 22.2410714,22.9910714 22.1784698,20.4285714 C22.1761061,20.318906 22.2185855,20.2130007 22.2961503,20.135436 C22.373715,20.0578712 22.4796203,20.0153918 22.5892857,20.0178571 L27.2678571,20.0178571 C27.4897573,20.0178571 27.6696429,20.1977427 27.6696429,20.4196429 L27.6696429,22.3214286 L27.6696429,22.375 L27.6696429,22.375 L27.6696429,22.3214286 C28.7015407,20.5745248 30.6163943,19.5431853 32.6428571,19.6428571 C36.2142857,19.6428571 38.9733136,22.0089286 38.9733136,27.0892857 L38.9733136,27.0714286 Z M14.0446429,36.6071501 L18.75,36.6071501 C18.8581254,36.6071501 18.9616979,36.5636152 19.0373093,36.4863236 C19.1129208,36.4090319 19.1541885,36.3045272 19.1517857,36.1964286 L19.1517857,20.4196429 C19.1517857,20.1977427 18.9719001,20.0178571 18.75,20.0178571 L14.0446429,20.0178571 C13.8212532,20.0178571 13.6387849,20.196306 13.6339286,20.4196429 L13.6339286,36.1517857 C13.6211955,36.2682169 13.6587777,36.3845456 13.7372246,36.4715194 C13.8156715,36.5584931 13.9275195,36.607837 14.0446429,36.6071501 Z" id="Shape"></path>
                            <circle id="Oval" cx="16.2232143" cy="14.9642857" r="2.94642857"></circle>
                        </g>
                    </g>
                </g>
            </g>
        </g>
    </g>
</svg>