<?xml version="1.0" encoding="UTF-8"?>
<svg width="50px" height="50px" viewBox="0 0 50 50" version="1.1" xmlns="http://www.w3.org/2000/svg" xmlns:xlink="http://www.w3.org/1999/xlink">
    <!-- Generator: Sketch 58 (84663) - https://sketch.com -->
    <title>Asset 5</title>
    <desc>Created with Sketch.</desc>
    <g id="Mentorship" stroke="none" stroke-width="1" fill="none" fill-rule="evenodd">
        <g transform="translate(-1080.000000, -2846.000000)" fill="#333033" id="Meet-the-mentors">
            <g transform="translate(-1.000000, 2150.000000)">
                <g id="Mentor-info" transform="translate(130.000000, 368.000000)">
                    <g id="Social-links" transform="translate(951.000000, 328.000000)">
                        <g id="Asset-5">
                            <path d="M25,50 C11.1928813,50 0,38.8071187 0,25 C0,11.1928813 11.1928813,0 25,0 C38.8071187,0 50,11.1928813 50,25 C49.9848592,38.8008423 38.8008423,49.9848592 25,50 L25,50 Z M25,2.69230769 C12.6798017,2.69230769 2.69230769,12.6798017 2.69230769,25 C2.69230769,37.3201983 12.6798017,47.3076923 25,47.3076923 C37.3201983,47.3076923 47.3076923,37.3201983 47.3076923,25 C47.2925553,12.6860771 37.3139229,2.70744468 25,2.69230769 Z" id="Shape" fill-rule="nonzero"></path>
                            <path d="M39.0450332,15.9149923 C38.099549,16.321967 37.1044187,16.6046354 36.0849608,16.7558057 C36.5552527,16.6735522 37.2653012,15.841878 37.5419435,15.476307 C37.9868335,14.9358761 38.3219004,14.3151611 38.5286343,13.6484516 C38.5286343,13.593616 38.5286343,13.529641 38.5286343,13.4930839 C38.47898,13.4699782 38.4215247,13.4699782 38.3718704,13.4930839 C37.2627858,14.0863539 36.0822429,14.5377821 34.8585134,14.8365576 C34.769947,14.8606347 34.6751423,14.8362747 34.6095354,14.7725827 C34.5176509,14.6574138 34.4158316,14.5503854 34.3052289,14.452708 C33.7876096,14.0413122 33.2090866,13.7114701 32.5900467,13.4748054 C31.76241,13.1444968 30.8709726,13.0008894 29.9803879,13.0543987 C29.1148264,13.1182857 28.2711548,13.3545234 27.4998288,13.7489837 C26.7266488,14.1524552 26.043056,14.7056467 25.4895616,15.3757749 C24.9192506,16.0678633 24.5099385,16.8760758 24.2907784,17.7428476 C24.1029723,18.5651968 24.0810352,19.4162286 24.2262285,20.2470094 C24.2262285,20.3932378 24.2262285,20.4115164 24.1063502,20.3932378 C19.2743317,19.6803742 15.2630187,17.9621902 12.0078612,14.288201 C11.86954,14.1328333 11.7957688,14.1328333 11.6758904,14.288201 C10.2557934,16.3993739 10.9473991,19.771767 12.7179097,21.4625332 C12.9576663,21.6910151 13.2066444,21.9103577 13.4648438,22.1114218 C12.6509295,22.0535379 11.857289,21.8328003 11.1318273,21.4625332 C10.9935061,21.3802797 10.9197349,21.4625332 10.9105135,21.5904831 C10.8834042,21.8181751 10.8834042,22.0482367 10.9105135,22.2759288 C11.200958,24.4706941 12.6589333,26.3415018 14.7281769,27.1745811 C14.9774827,27.2798741 15.2370453,27.3594993 15.5027753,27.4122023 C14.7535674,27.5659788 13.9836004,27.5937844 13.2250872,27.4944558 C13.0591018,27.4944558 12.994552,27.5492914 13.0591018,27.7046591 C13.8584053,29.771647 15.6790405,31.2822432 17.8726775,31.698523 C18.0847699,31.698523 18.3060837,31.698523 18.5273975,31.7899158 L18.4812905,31.7899158 C17.9464488,32.6033114 16.0745027,33.215643 15.1984688,33.5172391 C13.6008301,34.0813174 11.8990361,34.2964337 10.2096864,34.1478492 C9.94226549,34.1478492 9.88693703,34.1478492 9.81316576,34.1478492 C9.73939448,34.1478492 9.81316576,34.2575205 9.88693703,34.3214954 C10.2281292,34.5499773 10.5785427,34.7419022 10.9289563,34.933827 C11.9907248,35.4924511 13.1098285,35.9367184 14.2671064,36.2590221 C20.2610225,37.8949526 27.0110941,36.6885681 31.5111418,32.2651582 C35.0613844,28.8196509 36.2786104,24.0215306 36.2786104,19.2142711 C36.2786104,19.0314856 36.4999243,18.9218143 36.6382454,18.8212822 C37.52954,18.1330606 38.3153941,17.3203426 38.971262,16.4085132 C39.0742969,16.2752167 39.1265476,16.1101509 39.1188045,15.9424101 L39.1188045,15.9424101 C39.1372473,15.841878 39.1464687,15.8601566 39.0450332,15.9149923 Z" id="Path" fill-rule="nonzero"></path>
                            <path d="M19.9710145,36.4251208 C19.9710145,36.3707729 20.5905797,36.4251208 19.9710145,36.4251208 C19.9710145,36.3925121 20.0471014,36.4251208 19.9710145,36.4251208 Z" id="Path"></path>
                            <path d="M29.9673913,12.4877543 C29.9219223,12.5204095 29.8606864,12.5204095 29.8152174,12.4877543 L29.9673913,12.4877543 Z" id="Path"></path>
                        </g>
                    </g>
                </g>
            </g>
        </g>
    </g>
</svg>